<svg width="97" height="75" viewBox="0 0 97 75" fill="none" xmlns="http://www.w3.org/2000/svg">
<path d="M93.341 20.984L54.958 2.234C51.65 0.579002 46.024 0.579002 42.716 2.234L3.45102 20.984C0.693019 22.307 0.252014 24.182 0.252014 25.175C0.252014 26.168 0.693019 27.932 3.45102 29.366L6.64902 30.91V48.557C4.66402 49.33 3.23001 51.315 3.23001 53.521C3.23001 55.727 4.66402 57.712 6.53902 58.484L1.57602 74.256H15.473L10.51 58.484C12.495 57.712 13.818 55.727 13.818 53.521C13.818 51.205 12.385 49.33 10.399 48.557V32.785L16.245 35.653V58.594C16.245 58.925 16.355 59.256 16.576 59.587C17.127 60.249 27.385 74.256 48.341 74.256C69.297 74.256 79.554 60.138 79.995 59.587C80.216 59.256 80.326 58.925 80.326 58.594V35.763L93.341 29.366C96.098 28.043 96.539 26.168 96.539 25.175C96.429 24.182 96.098 22.307 93.341 20.984ZM76.797 58.043C75.032 60.249 65.547 70.837 48.341 70.837C31.135 70.837 21.649 60.249 19.885 58.043V37.197L42.716 48.116C44.37 48.888 46.576 49.33 48.782 49.33C51.098 49.33 53.304 48.888 54.958 48.006L76.797 37.307V58.043ZM91.797 26.278L78.561 32.785C78.01 32.785 77.569 33.006 77.348 33.447L53.414 45.028C51.098 46.241 46.576 46.241 44.149 45.028L14.701 30.91L48.561 26.94C49.554 26.829 50.216 25.947 50.105 25.065C49.995 24.072 49.113 23.41 48.23 23.521L8.96501 28.153L4.99501 26.278C4.00201 25.837 3.78201 25.285 3.78201 25.285C3.78201 25.175 4.00201 24.734 4.99501 24.293L44.26 5.432C45.473 4.881 47.127 4.55 48.782 4.55C50.547 4.55 52.311 4.881 53.414 5.432L91.797 24.182C92.789 24.623 93.01 25.065 93.01 25.285C93.01 25.285 92.679 25.837 91.797 26.278Z" fill="#00BA82"/>
</svg>
