<svg width="500" height="170" viewBox="0 0 500 170" fill="none" xmlns="http://www.w3.org/2000/svg">
<path d="M81.05 91.494C82.1147 91.068 83.0017 90.855 83.711 90.855C84.847 90.855 85.6987 91.281 86.266 92.133C86.834 92.9843 87.118 94.0843 87.118 95.433C87.118 97.5623 86.6034 99.372 85.574 100.862C84.5454 102.353 82.789 103.701 80.305 104.908C76.117 106.895 70.6874 108.474 64.016 109.645C57.3447 110.816 50.7797 111.402 44.321 111.402C35.379 111.402 27.8917 110.391 21.859 108.368C15.8264 106.345 11.3374 103.56 8.39202 100.011C5.44602 96.4623 3.97302 92.4523 3.97302 87.981C3.97302 81.877 5.94269 76.6783 9.88202 72.385C13.8207 68.091 19.6227 64.9857 27.288 63.069C23.1007 61.863 19.889 59.734 17.653 56.682C15.4177 53.63 14.3 50.2233 14.3 46.462C14.3 41.352 15.9147 36.8273 19.144 32.888C22.3734 28.9493 26.7204 25.9153 32.185 23.786C37.6497 21.6567 43.647 20.592 50.177 20.592C58.9777 20.592 65.578 22.4907 69.978 26.288C74.378 30.0847 76.578 34.9993 76.578 41.032C76.578 45.22 75.8154 48.609 74.29 51.199C72.764 53.7897 70.5814 55.085 67.742 55.085C65.7554 55.085 64.194 54.6413 63.058 53.754C61.9227 52.8673 61.355 51.5367 61.355 49.762C61.355 48.5553 61.5324 47.2423 61.887 45.823C62.2417 43.481 62.419 41.884 62.419 41.032C62.419 38.4773 61.461 36.4017 59.545 34.805C57.629 33.2077 54.4354 32.409 49.964 32.409C43.9314 32.409 39.105 33.6867 35.485 36.242C31.8657 38.7967 30.056 42.2387 30.056 46.568C30.056 49.904 31.4224 52.6543 34.155 54.819C36.887 56.9837 41.3404 58.1723 47.515 58.385C49.0764 58.4563 50.1764 58.8113 50.815 59.45C51.4544 60.0887 51.774 61.1533 51.774 62.644C51.774 67.328 49.6447 69.7053 45.386 69.776C39.4954 69.918 34.616 70.7343 30.748 72.225C26.88 73.7157 24.0767 75.614 22.338 77.92C20.5987 80.2267 19.729 82.693 19.729 85.319C19.729 89.7197 21.7874 93.0377 25.904 95.273C30.0207 97.509 36.55 98.627 45.492 98.627C51.3834 98.627 57.6114 97.935 64.176 96.551C70.7407 95.167 76.3654 93.4813 81.05 91.494ZM137.154 87.129C138.077 87.129 138.804 87.555 139.336 88.407C139.868 89.2583 140.134 90.4293 140.134 91.92C140.134 94.7587 139.46 96.9587 138.112 98.52C135.202 102.069 132.008 105.103 128.53 107.623C125.053 110.142 121.611 111.402 118.204 111.402C112.81 111.402 108.694 108.244 105.855 101.927C102.874 105.688 100.265 108.208 98.03 109.486C95.794 110.763 93.1857 111.402 90.205 111.402C85.8757 111.402 82.3094 109.787 79.506 106.558C76.7027 103.329 75.301 99.1237 75.301 93.943C75.301 88.265 76.5077 82.995 78.921 78.133C81.3337 73.2717 84.6514 69.2973 88.874 66.21C93.0974 63.1227 97.835 61.295 103.087 60.727C104.435 46.9583 107.008 35.1947 110.805 25.436C114.602 15.6773 119.588 10.798 125.762 10.798C128.814 10.798 131.351 12.182 133.374 14.95C135.397 17.718 136.408 21.9053 136.408 27.512C136.408 35.4613 134.456 44.7587 130.553 55.404C126.65 66.05 121.433 76.98 114.904 88.194C115.187 92.31 115.808 95.2553 116.767 97.03C117.725 98.804 118.949 99.691 120.44 99.691C122.356 99.691 124.308 98.8393 126.295 97.136C128.282 95.4327 130.944 92.594 134.279 88.62C135.131 87.626 136.089 87.129 137.154 87.129ZM124.591 21.231C123.243 21.231 121.895 23.6263 120.546 28.417C119.197 33.2077 118.044 39.471 117.086 47.207C116.128 54.943 115.436 63.034 115.01 71.48C122.959 54.1627 126.934 40.252 126.934 29.748C126.934 27.0507 126.703 24.957 126.242 23.467C125.781 21.9763 125.23 21.231 124.591 21.231ZM93.931 100.649C95.2797 100.649 96.6284 100.099 97.977 98.999C99.325 97.899 101.028 95.8587 103.087 92.878C102.377 89.0453 102.022 84.7513 102.022 79.996C102.022 78.2927 102.093 75.525 102.235 71.693C98.3317 72.899 95.0847 75.507 92.494 79.517C89.9034 83.527 88.608 87.9807 88.608 92.878C88.608 98.0587 90.3824 100.649 93.931 100.649ZM142.37 111.402C139.176 111.402 136.568 109.929 134.545 106.984C132.522 104.039 131.511 100.366 131.511 95.965C131.511 90.6423 131.866 85.763 132.576 81.327C133.285 76.891 134.456 72.189 136.089 67.221C136.799 65.0923 137.793 63.5667 139.07 62.644C140.347 61.7213 142.37 61.26 145.138 61.26C146.699 61.26 147.782 61.5083 148.385 62.005C148.988 62.5017 149.29 63.247 149.29 64.241C149.29 64.8083 148.9 66.7243 148.119 69.989C147.409 72.615 146.841 74.9927 146.415 77.122C144.996 84.574 144.286 89.542 144.286 92.026C144.286 93.5167 144.464 94.5637 144.819 95.167C145.174 95.7703 145.741 96.072 146.522 96.072C147.587 96.072 148.917 95.0073 150.514 92.878C152.111 90.7487 153.814 87.5193 155.624 83.19C157.434 78.8607 159.191 73.5377 160.894 67.221C161.462 65.0923 162.331 63.5667 163.502 62.644C164.673 61.7213 166.43 61.26 168.772 61.26C170.404 61.26 171.54 61.455 172.179 61.845C172.818 62.2357 173.137 62.9633 173.137 64.028C173.137 65.802 172.25 70.6633 170.475 78.612C168.488 87.6967 167.494 93.3037 167.494 95.433C167.494 96.7817 167.778 97.8287 168.346 98.574C168.914 99.3187 169.659 99.691 170.582 99.691C172.001 99.691 173.687 98.8217 175.638 97.083C177.59 95.3443 180.198 92.5233 183.463 88.62C184.315 87.626 185.273 87.129 186.338 87.129C187.261 87.129 187.988 87.555 188.52 88.407C189.052 89.2583 189.318 90.4293 189.318 91.92C189.318 94.7587 188.644 96.9587 187.296 98.52C184.244 102.282 180.961 105.369 177.448 107.782C173.935 110.195 169.943 111.402 165.472 111.402C162.065 111.402 159.563 110.089 157.966 107.463C156.369 104.837 155.571 101.146 155.571 96.391C154.364 101.217 152.555 104.925 150.142 107.516C147.729 110.107 145.138 111.402 142.37 111.402Z" fill="#00BA82"/>
<path d="M349.539 111.615C340.1 111.615 332.541 109.823 326.863 106.239C321.186 102.654 318.347 97.1717 318.347 89.791C318.347 85.887 319.021 82.906 320.369 80.848C321.718 78.79 323.705 77.761 326.331 77.761C328.247 77.761 329.808 78.2577 331.015 79.251C332.222 80.245 332.825 81.5227 332.825 83.084C332.825 84.5033 332.719 85.7453 332.506 86.81C332.506 87.094 332.453 87.5907 332.346 88.3C332.239 89.01 332.186 89.7553 332.186 90.536C332.186 93.73 333.801 96.1077 337.03 97.669C340.259 99.2303 344.784 100.011 350.604 100.011C356.637 100.011 361.356 98.9287 364.763 96.764C368.17 94.5993 369.873 91.565 369.873 87.661C369.873 85.2483 369.092 83.1727 367.531 81.434C365.97 79.6947 364.018 78.2397 361.675 77.069C359.333 75.8977 356.033 74.4603 351.775 72.757C346.31 70.6277 341.856 68.605 338.414 66.689C334.972 64.773 332.027 62.1647 329.578 58.864C327.129 55.564 325.905 51.4653 325.905 46.568C325.905 41.458 327.271 36.916 330.004 32.942C332.737 28.9673 336.676 25.88 341.821 23.68C346.966 21.4793 353.017 20.379 359.972 20.379C365.153 20.379 369.909 21.142 374.238 22.668C378.567 24.194 382.027 26.5183 384.617 29.641C387.208 32.7643 388.503 36.597 388.503 41.139C388.503 45.6103 387.829 48.9817 386.48 51.253C385.132 53.5237 383.145 54.659 380.519 54.659C378.674 54.659 377.13 54.0913 375.888 52.956C374.646 51.8207 374.025 50.472 374.025 48.91C374.025 47.562 374.131 46.32 374.344 45.184C374.557 43.0553 374.663 41.707 374.663 41.139C374.663 38.1583 373.208 35.8873 370.299 34.326C367.389 32.764 363.769 31.983 359.44 31.983C353.336 31.983 348.669 33.101 345.44 35.337C342.211 37.5723 340.597 40.713 340.597 44.759C340.597 47.4557 341.431 49.762 343.098 51.678C344.766 53.5947 346.842 55.1917 349.326 56.469C351.81 57.7463 355.288 59.2723 359.759 61.047C365.153 63.247 369.482 65.234 372.747 67.008C376.012 68.7827 378.797 71.196 381.104 74.248C383.411 77.2993 384.564 81.0607 384.564 85.532C384.564 93.9067 381.388 100.348 375.036 104.855C368.684 109.362 360.185 111.615 349.539 111.615ZM447.588 87.236C448.511 87.236 449.238 87.6793 449.77 88.566C450.303 89.4533 450.569 90.5713 450.569 91.92C450.569 93.552 450.32 94.8293 449.823 95.752C449.326 96.6747 448.546 97.491 447.481 98.201L427.041 111.934C424.344 126.625 420.813 138.176 416.448 146.586C412.083 154.997 406.53 159.202 399.788 159.202C396.168 159.202 393.223 158.084 390.952 155.848C388.681 153.613 387.545 150.685 387.545 147.066C387.545 143.73 388.308 140.323 389.834 136.845C391.36 133.368 394.199 129.376 398.35 124.869C402.502 120.362 408.375 115.199 415.969 109.379L416.289 106.931C416.786 104.305 417.353 100.543 417.992 95.646C416.573 100.756 414.585 104.642 412.03 107.303C409.475 109.964 406.779 111.295 403.94 111.295C400.746 111.295 398.138 109.822 396.115 106.877C394.092 103.932 393.081 100.259 393.081 95.859C393.081 90.5357 393.436 85.6563 394.145 81.221C394.855 76.785 396.026 72.083 397.658 67.115C398.368 64.9857 399.362 63.4597 400.639 62.537C401.917 61.6143 403.94 61.153 406.707 61.153C408.269 61.153 409.351 61.4013 409.954 61.898C410.557 62.3953 410.859 63.1407 410.859 64.134C410.859 64.702 410.469 66.6183 409.688 69.883C408.979 72.509 408.411 74.8867 407.985 77.016C407.417 79.9253 406.92 82.711 406.495 85.373C406.069 88.0343 405.856 90.2167 405.856 91.92C405.856 94.6167 406.601 95.965 408.091 95.965C409.156 95.965 410.487 94.9003 412.084 92.771C413.681 90.6423 415.384 87.4133 417.194 83.084C419.003 78.7547 420.76 73.4317 422.463 67.115C423.031 64.9857 423.901 63.4597 425.072 62.537C426.243 61.6143 427.999 61.153 430.341 61.153C431.974 61.153 433.109 61.366 433.748 61.792C434.387 62.218 434.706 62.9277 434.706 63.921C434.706 65.6957 433.783 71.7993 431.938 82.232L429.17 99.372C434.635 95.2553 439.958 91.4937 445.139 88.087C446.062 87.5197 446.878 87.236 447.588 87.236ZM400.959 148.875C402.733 148.875 404.72 146.817 406.92 142.701C409.121 138.584 411.321 131.735 413.521 122.154C408.056 126.767 404.1 130.973 401.651 134.77C399.202 138.567 397.978 141.884 397.978 144.723C397.978 145.93 398.209 146.923 398.67 147.704C399.131 148.485 399.894 148.875 400.959 148.875ZM461.747 113.637C458.056 113.637 455.235 112.785 453.283 111.082C451.332 109.379 450.356 107.463 450.356 105.334C450.356 103.489 451.03 101.892 452.378 100.543C453.727 99.1943 455.714 98.52 458.34 98.52C459.263 98.52 460.345 98.6087 461.587 98.786C462.829 98.964 463.769 99.0883 464.408 99.159C464.337 97.3137 463.929 95.575 463.184 93.943C462.439 92.3103 461.498 90.731 460.363 89.205C459.227 87.679 458.162 86.3483 457.169 85.213C454.969 89.4003 452.787 92.878 450.622 95.646C448.457 98.414 446.097 101.04 443.542 103.524C442.265 104.801 440.916 105.44 439.497 105.44C438.361 105.44 437.438 105.032 436.729 104.216C436.019 103.4 435.664 102.389 435.664 101.182C435.664 99.7627 436.161 98.4497 437.155 97.243L438.539 95.539C442.442 90.713 445.388 86.7387 447.375 83.616C448.582 81.558 450.001 78.8077 451.633 75.365C453.266 71.923 454.863 68.3567 456.424 64.666C457.773 61.5433 460.576 59.982 464.834 59.982C466.821 59.982 468.205 60.1593 468.986 60.514C469.767 60.8693 470.157 61.4373 470.157 62.218C470.157 62.644 470.015 63.3183 469.731 64.241C469.447 65.163 469.057 66.0853 468.56 67.008C467.283 69.5633 466.644 71.728 466.644 73.502C466.644 74.5667 467.017 75.738 467.762 77.016C468.507 78.2933 469.66 79.89 471.222 81.806C473.493 84.7873 475.214 87.3247 476.385 89.418C477.556 91.512 478.141 93.801 478.141 96.285C478.141 96.9943 478.07 97.9877 477.929 99.265C481.406 97.917 485.487 94.333 490.171 88.513C491.023 87.5197 491.981 87.023 493.046 87.023C493.969 87.023 494.696 87.4487 495.228 88.3C495.761 89.152 496.027 90.323 496.027 91.813C496.027 94.5103 495.353 96.7107 494.004 98.414C490.455 102.814 487.066 105.813 483.837 107.41C480.608 109.007 476.615 109.876 471.86 110.018C469.021 112.431 465.65 113.637 461.747 113.637Z" fill="#00BA82"/>
<path d="M300.341 48.984L261.958 30.234C258.65 28.579 253.024 28.579 249.716 30.234L210.451 48.984C207.693 50.307 207.252 52.182 207.252 53.175C207.252 54.168 207.693 55.932 210.451 57.366L213.649 58.91V76.557C211.664 77.33 210.23 79.315 210.23 81.521C210.23 83.727 211.664 85.712 213.539 86.484L208.576 102.256H222.473L217.51 86.484C219.495 85.712 220.818 83.727 220.818 81.521C220.818 79.205 219.385 77.33 217.399 76.557V60.785L223.245 63.653V86.594C223.245 86.925 223.355 87.256 223.576 87.587C224.127 88.249 234.385 102.256 255.341 102.256C276.297 102.256 286.554 88.138 286.995 87.587C287.216 87.256 287.326 86.925 287.326 86.594V63.763L300.341 57.366C303.098 56.043 303.539 54.168 303.539 53.175C303.429 52.182 303.098 50.307 300.341 48.984ZM283.797 86.043C282.032 88.249 272.547 98.837 255.341 98.837C238.135 98.837 228.649 88.249 226.885 86.043V65.197L249.716 76.116C251.37 76.888 253.576 77.33 255.782 77.33C258.098 77.33 260.304 76.888 261.958 76.006L283.797 65.307V86.043ZM298.797 54.278L285.561 60.785C285.01 60.785 284.569 61.006 284.348 61.447L260.414 73.028C258.098 74.241 253.576 74.241 251.149 73.028L221.701 58.91L255.561 54.94C256.554 54.829 257.216 53.947 257.105 53.065C256.995 52.072 256.113 51.41 255.23 51.521L215.965 56.153L211.995 54.278C211.002 53.837 210.782 53.285 210.782 53.285C210.782 53.175 211.002 52.734 211.995 52.293L251.26 33.432C252.473 32.881 254.127 32.55 255.782 32.55C257.547 32.55 259.311 32.881 260.414 33.432L298.797 52.182C299.789 52.623 300.01 53.065 300.01 53.285C300.01 53.285 299.679 53.837 298.797 54.278Z" fill="#00BA82"/>
</svg>
